<svg width="85px" height="85px" viewBox="320 186 85 85" version="1.1" xmlns="http://www.w3.org/2000/svg" xmlns:xlink="http://www.w3.org/1999/xlink">
    <!-- Generator: Sketch 41.2 (35397) - http://www.bohemiancoding.com/sketch -->
    <desc>Created with Sketch.</desc>
    <defs></defs>
    <g id="Logo-lowercase-Copy" stroke="none" stroke-width="1" fill="none" fill-rule="evenodd" transform="translate(320.000000, 186.000000)">
        <path d="M7.375,13.3726867 L7.375,71.3773133 C7.375,74.6911348 10.0593003,77.375 13.3726867,77.375 L71.3773133,77.375 C74.6911348,77.375 77.375,74.6906997 77.375,71.3773133 L77.375,13.3726867 C77.375,10.0588652 74.6906997,7.375 71.3773133,7.375 L13.3726867,7.375 C10.0588652,7.375 7.375,10.0593003 7.375,13.3726867 Z M3.375,13.3726867 C3.375,7.85111679 7.84877076,3.375 13.3726867,3.375 L71.3773133,3.375 C76.8988832,3.375 81.375,7.84877076 81.375,13.3726867 L81.375,71.3773133 C81.375,76.8988832 76.9012292,81.375 71.3773133,81.375 L13.3726867,81.375 C7.85111679,81.375 3.375,76.9012292 3.375,71.3773133 L3.375,13.3726867 Z" id="Rectangle" fill="#000000"></path>
        <path d="M3.375,13.3726867 L3.375,71.3773133 C3.375,76.9012292 7.85111679,81.375 13.3726867,81.375 L71.3773133,81.375 C76.9012292,81.375 81.375,76.8988832 81.375,71.3773133 L81.375,13.3726867 C81.375,7.84877076 76.8988832,3.375 71.3773133,3.375 L13.3726867,3.375 C7.84877076,3.375 3.375,7.85111679 3.375,13.3726867 Z M0.375,13.3726867 C0.375,6.19356101 6.19261789,0.375 13.3726867,0.375 L71.3773133,0.375 C78.556439,0.375 84.375,6.19261789 84.375,13.3726867 L84.375,71.3773133 C84.375,78.556439 78.5573821,84.375 71.3773133,84.375 L13.3726867,84.375 C6.19356101,84.375 0.375,78.5573821 0.375,71.3773133 L0.375,13.3726867 Z" id="Rectangle" fill="#FFFFFF"></path>
        <path d="M25.0566406,30.0175781 L25.3642578,34.1533203 C27.9847136,30.9404136 31.5279725,29.3339844 35.9941406,29.3339844 C40.7565342,29.3339844 44.0263583,31.2138484 45.8037109,34.9736328 C48.4013802,31.2138484 52.1041426,29.3339844 56.9121094,29.3339844 C60.9225461,29.3339844 63.9075423,30.5017787 65.8671875,32.8374023 C67.8268327,35.173026 68.8066406,38.6878021 68.8066406,43.3818359 L68.8066406,67 L58.8945312,67 L58.8945312,43.4160156 C58.8945312,41.319651 58.4843791,39.787277 57.6640625,38.8188477 C56.8437459,37.8504183 55.3968203,37.3662109 53.3232422,37.3662109 C50.3609878,37.3662109 48.3102271,38.7789572 47.1708984,41.6044922 L47.2050781,67 L37.3271484,67 L37.3271484,43.4501953 C37.3271484,41.3082575 36.9056032,39.7587938 36.0625,38.8017578 C35.2193968,37.8447218 33.7838643,37.3662109 31.7558594,37.3662109 C28.953111,37.3662109 26.9251365,38.5283087 25.671875,40.8525391 L25.671875,67 L15.7939453,67 L15.7939453,30.0175781 L25.0566406,30.0175781 Z" id="m" fill="#000000"></path>
    </g>
</svg>
